<svg height="64px" width="64px" version="1.1" id="_x32_" xmlns="http://www.w3.org/2000/svg" xmlns:xlink="http://www.w3.org/1999/xlink" viewBox="0 0 512 512" xml:space="preserve" fill="#000000" stroke="#000000" transform="matrix(1, 0, 0, 1, 0, 0)"><g id="SVGRepo_bgCarrier" stroke-width="0"></g><g id="SVGRepo_tracerCarrier" stroke-linecap="round" stroke-linejoin="round" stroke="#CCCCCC" stroke-width="7.168000000000001"> <style type="text/css"> .st0{fill:#f5f5f5;} </style> <g> <path class="st0" d="M510.069,388.114V70.633V3.268l-65.848,14.204L110.483,92.396h-0.01v262.876 c-12.625-1.872-26.132-1.332-39.711,2.03c-48.156,11.924-78.972,54.796-68.83,95.756s57.403,64.499,105.559,52.575 c48.156-11.924,78.972-54.796,68.83-95.756V182.327l267.901-60.733v211.914c-12.625-1.872-26.132-1.332-39.712,2.03 c-48.156,11.924-78.972,54.796-68.83,95.756s57.403,64.499,105.559,52.575C489.395,471.946,520.211,429.075,510.069,388.114z"></path> </g> </g><g id="SVGRepo_iconCarrier"> <style type="text/css"> .st0{fill:#f5f5f5;} </style> <g> <path class="st0" d="M510.069,388.114V70.633V3.268l-65.848,14.204L110.483,92.396h-0.01v262.876 c-12.625-1.872-26.132-1.332-39.711,2.03c-48.156,11.924-78.972,54.796-68.83,95.756s57.403,64.499,105.559,52.575 c48.156-11.924,78.972-54.796,68.83-95.756V182.327l267.901-60.733v211.914c-12.625-1.872-26.132-1.332-39.712,2.03 c-48.156,11.924-78.972,54.796-68.83,95.756s57.403,64.499,105.559,52.575C489.395,471.946,520.211,429.075,510.069,388.114z"></path> </g> </g></svg>